<svg width="652" height="550" viewBox="0 0 652 550" fill="none" xmlns="http://www.w3.org/2000/svg">
<g clip-path="url(#clip0_3_2657)">
<path d="M530.616 265.45C530.616 273.179 530.291 280.829 529.641 288.4C529.13 294.311 528.432 300.168 527.548 305.973C526.608 312.118 525.457 318.19 524.093 324.188V324.195C523.202 328.142 522.223 332.057 521.157 335.94C518.063 347.227 514.215 358.294 509.64 369.066C508.645 371.409 507.618 373.736 506.558 376.047C502.549 384.8 498.061 393.325 493.113 401.583C479.237 424.773 461.916 445.717 441.744 463.694C439.561 465.637 437.348 467.547 435.105 469.425C387.478 509.232 327.366 530.996 265.308 530.9C118.781 530.9 0 412.056 0 265.45C0 118.844 118.781 -9.84662e-05 265.308 -9.84662e-05C325.229 -0.0946313 383.402 20.1989 430.275 57.5487C432.472 59.2907 434.642 61.0719 436.784 62.8922C447.236 71.7611 456.99 81.4214 465.961 91.7876H465.968C507.75 139.977 530.71 201.655 530.616 265.45Z" fill="#F2F2F2"/>
<path d="M78.3185 311.303C53.0448 296.253 33.9693 268.126 36.4457 238.804C59.5521 260.93 89.736 274.167 121.657 276.17C133.971 276.899 147.742 276.426 156.806 284.796C162.446 290.005 165.072 297.846 165.502 305.513C165.933 313.18 164.398 320.807 162.87 328.332L163.396 330.176C133.985 330.287 103.592 326.354 78.3185 311.303Z" fill="#E6E6E6"/>
<path d="M37.062 238.772C47.1886 260.922 64.0331 279.317 85.2031 291.343C89.7542 293.892 94.5926 296.081 99.7343 297.096C104.754 298.048 109.936 297.637 114.743 295.907C119.258 294.383 123.699 292.302 128.505 291.903C133.571 291.483 138.26 293.438 141.945 296.863C146.453 301.054 149.188 306.615 151.673 312.147C154.432 318.288 157.201 324.711 162.492 329.128C163.133 329.663 162.265 330.627 161.625 330.093C152.421 322.408 150.918 309.54 143.561 300.49C140.128 296.267 135.402 293.053 129.787 293.138C124.878 293.212 120.296 295.355 115.738 296.936C110.953 298.597 106.159 299.378 101.106 298.647C95.9379 297.899 91.0037 295.895 86.4075 293.473C76.0258 287.905 66.5838 280.738 58.4272 272.236C49.0643 262.583 41.4208 251.399 35.8273 239.168C35.4814 238.41 36.7184 238.02 37.062 238.772H37.062Z" fill="white"/>
<path d="M78.1587 287.872C75.6599 291.152 72.0772 293.436 68.0504 294.317C64.0236 295.198 59.815 294.618 56.1761 292.681C55.4412 292.286 56.0194 291.125 56.7553 291.52C60.1405 293.33 64.0609 293.87 67.8089 293.042C71.557 292.214 74.8858 290.073 77.1945 287.005C77.697 286.339 78.6583 287.21 78.1587 287.872L78.1587 287.872Z" fill="white"/>
<path d="M112.556 296.981C111.504 288.616 107.34 280.955 100.894 275.526C100.255 274.989 101.122 274.025 101.76 274.561C108.458 280.224 112.775 288.205 113.85 296.911C113.952 297.741 112.657 297.806 112.556 296.981V296.981Z" fill="white"/>
<path d="M50.6719 261.974C51.903 260.907 52.8499 259.55 53.4275 258.026C54.005 256.502 54.1952 254.858 53.981 253.242C53.8686 252.414 55.1637 252.35 55.2754 253.173C55.5038 254.959 55.2916 256.775 54.6571 258.46C54.0227 260.145 52.9855 261.649 51.636 262.841C51.5182 262.964 51.3581 263.038 51.1881 263.047C51.018 263.056 50.8509 263 50.7207 262.89C50.5936 262.775 50.5172 262.614 50.5081 262.442C50.4989 262.271 50.5578 262.103 50.6719 261.974V261.974Z" fill="white"/>
<path d="M118.255 181.996C118.34 182.511 118.425 183.026 118.519 183.546C119.696 190.467 121.433 197.28 123.713 203.919C123.881 204.435 124.059 204.955 124.241 205.465C129.904 221.401 138.475 236.147 149.517 248.952C153.916 254.044 158.696 258.793 163.815 263.159C170.885 269.189 179.03 275.163 183.562 282.948C184.045 283.755 184.476 284.591 184.855 285.451L165.603 329.391C165.509 329.469 165.425 329.552 165.331 329.63L164.643 331.42C164.363 331.213 164.077 330.993 163.797 330.786C163.635 330.667 163.476 330.538 163.313 330.419C163.206 330.336 163.099 330.253 162.998 330.185C162.962 330.157 162.927 330.129 162.901 330.106C162.799 330.038 162.712 329.964 162.621 329.9C161.021 328.672 159.426 327.431 157.838 326.176C157.828 326.172 157.828 326.172 157.822 326.158C145.742 316.568 134.356 305.886 124.953 293.814C124.67 293.45 124.377 293.083 124.103 292.7C119.894 287.235 116.139 281.434 112.875 275.357C111.099 272.024 109.492 268.603 108.061 265.107C104.381 256.066 102.146 246.503 101.436 236.768C100.025 217.361 104.833 197.718 117.292 183.103C117.611 182.73 117.926 182.365 118.255 181.996Z" fill="#E6E6E6"/>
<path d="M118.769 182.339C113.526 206.125 115.906 230.959 125.573 253.314C127.673 258.09 130.219 262.753 133.713 266.661C137.148 270.444 141.533 273.238 146.412 274.752C150.934 276.256 155.732 277.269 159.81 279.846C164.107 282.562 166.675 286.948 167.556 291.903C168.634 297.964 167.471 304.052 166.127 309.965C164.634 316.531 162.98 323.328 164.546 330.041C164.736 330.855 163.463 331.102 163.274 330.289C160.549 318.609 167.093 307.429 166.664 295.771C166.464 290.331 164.624 284.919 160.09 281.604C156.126 278.706 151.178 277.657 146.587 276.174C141.767 274.617 137.469 272.353 133.875 268.726C130.198 265.015 127.465 260.442 125.252 255.74C120.314 245.041 117.087 233.631 115.691 221.928C114.024 208.581 114.651 195.047 117.545 181.911C117.724 181.098 118.947 181.532 118.769 182.339Z" fill="white"/>
<path d="M122.037 246.299C118.068 247.412 113.833 247.078 110.087 245.356C106.342 243.633 103.331 240.635 101.591 236.896C101.242 236.139 102.402 235.56 102.752 236.318C104.366 239.803 107.171 242.596 110.662 244.192C114.153 245.789 118.099 246.085 121.788 245.026C122.59 244.797 122.834 246.071 122.037 246.299H122.037Z" fill="white"/>
<path d="M144.02 274.292C148.213 266.98 149.498 258.355 147.619 250.137C147.432 249.323 148.704 249.076 148.891 249.889C150.831 258.444 149.476 267.417 145.095 275.017C144.677 275.741 143.604 275.012 144.02 274.292Z" fill="white"/>
<path d="M115.674 209.063C117.299 208.953 118.872 208.44 120.25 207.571C121.628 206.702 122.769 205.504 123.57 204.085C123.979 203.356 125.051 204.085 124.645 204.809C123.753 206.373 122.491 207.694 120.971 208.658C119.45 209.621 117.717 210.198 115.922 210.336C115.754 210.363 115.582 210.326 115.441 210.23C115.299 210.135 115.2 209.99 115.162 209.824C115.13 209.655 115.166 209.481 115.261 209.338C115.357 209.196 115.505 209.097 115.674 209.063V209.063Z" fill="white"/>
<path d="M183.781 61.5236L216.254 441.859L151.308 446.744V66.3626C159.047 61.239 170.156 60.4374 183.781 61.5236Z" fill="#CCCCCC"/>
<path d="M344.071 61.5236L311.599 441.859L376.544 446.744V66.3626C368.805 61.239 357.696 60.4374 344.071 61.5236Z" fill="#CCCCCC"/>
<path d="M366.819 462.464H160.342C157.031 462.46 153.857 461.143 151.516 458.8C149.174 456.458 147.858 453.282 147.854 449.969V71.9444C147.858 68.6318 149.175 65.4559 151.516 63.1136C153.857 60.7712 157.031 59.4536 160.342 59.4498H366.819C370.13 59.4536 373.304 60.7712 375.646 63.1136C377.987 65.4559 379.304 68.6318 379.307 71.9444V449.969C379.304 453.282 377.987 456.458 375.646 458.8C373.304 461.143 370.13 462.46 366.819 462.464ZM160.342 63.5974C158.13 63.5999 156.009 64.4801 154.445 66.0449C152.881 67.6098 152.002 69.7314 151.999 71.9444V449.969C152.002 452.182 152.881 454.304 154.445 455.869C156.009 457.434 158.13 458.314 160.342 458.316H366.819C369.031 458.314 371.152 457.434 372.716 455.869C374.28 454.304 375.159 452.182 375.162 449.969V71.9444C375.159 69.7314 374.28 67.6098 372.716 66.0449C371.152 64.4801 369.031 63.5999 366.819 63.5975L160.342 63.5974Z" fill="#CCCCCC"/>
<path d="M377.235 122.356H149.927V126.504H377.235V122.356Z" fill="#CCCCCC"/>
<path d="M377.235 191.484H149.927V195.631H377.235V191.484Z" fill="#CCCCCC"/>
<path d="M223.69 61.5236H219.545V250.242H223.69V61.5236Z" fill="#CCCCCC"/>
<path d="M307.616 61.5236H303.471V250.242H307.616V61.5236Z" fill="#CCCCCC"/>
<path d="M403.144 473.87H130.927C125.979 473.87 121.234 471.904 117.736 468.403C114.238 464.903 112.272 460.156 112.272 455.206C112.272 450.255 114.238 445.508 117.736 442.008C121.234 438.508 125.979 436.541 130.927 436.541H403.144C408.091 436.541 412.836 438.508 416.334 442.008C419.833 445.508 421.798 450.255 421.798 455.206C421.798 460.156 419.833 464.903 416.334 468.403C412.836 471.904 408.091 473.87 403.144 473.87Z" fill="#CCCCCC"/>
<path d="M377.235 240.564H151.308V254.39H377.235V240.564Z" fill="#CCCCCC"/>
<path d="M224.334 284.564L224.047 284.426C208.645 276.982 188.477 276.989 158.65 284.45L158.332 284.53L158.236 284.215C155.081 273.864 151.507 262.14 158.222 256.372C158.316 239.446 173.155 225.702 191.382 225.702C209.605 225.702 224.443 239.439 224.542 256.361C234.531 264.002 229.77 275.293 224.495 284.29L224.334 284.564Z" fill="#2F2E41"/>
<path d="M318.995 248.32C318.719 249.692 318.146 250.986 317.316 252.112C316.486 253.238 315.419 254.168 314.191 254.837C312.962 255.506 311.602 255.897 310.207 255.983C308.811 256.069 307.413 255.848 306.112 255.335L251.685 310.06L246.828 293.067L300.885 242.248C301.891 240.118 303.643 238.432 305.809 237.508C307.975 236.584 310.404 236.488 312.636 237.236C314.868 237.985 316.749 239.526 317.921 241.569C319.093 243.612 319.475 246.014 318.995 248.321L318.995 248.32Z" fill="#FFB6B6"/>
<path d="M184.477 301.004C184.477 301.004 179.539 312.201 191.724 319.105C203.908 326.01 246.494 316.471 253.404 315.139C260.314 313.807 286.122 275.164 286.122 275.164L282.472 256.213L248.245 285.941L184.477 301.004Z" fill="#F3F7F0"/>
<path d="M175.49 362.92L176.181 376.054C176.181 376.054 174.142 387.689 175.819 390.2C177.483 392.698 222.904 393.013 222.904 393.013C222.904 393.013 225.906 376.826 228.491 362.657L175.49 362.92Z" fill="#FFB6B6"/>
<path d="M306.081 536.583L315.577 534.664L312.859 496.289L298.844 499.121L306.081 536.583Z" fill="#FFB6B6"/>
<path d="M319.683 486.644L328.51 482.672L317.059 445.954L304.03 451.816L319.683 486.644Z" fill="#FFB6B6"/>
<path d="M327.372 465.955L310.751 475.371L269.758 409.464C240.981 428.862 212.84 438.151 184.472 443.108C174.881 444.817 165.102 443.951 163.261 434.184C163.175 433.727 163.106 433.268 163.055 432.806C161.922 422.138 175.186 408.463 176.872 395.41L213.172 393.23L217.649 398.972L259.629 373.149C268.072 367.956 279.175 370.765 284.43 379.423C284.708 379.88 284.965 380.348 285.203 380.828L327.372 465.955Z" fill="#2F2E41"/>
<path d="M317.199 510.291L298.179 512.06L263.694 441.494C229.497 447.378 197.236 449.263 169.331 442.145C159.883 439.768 154.108 430.007 156.432 420.344C156.54 419.892 156.666 419.445 156.809 419.003C160.148 408.808 168.89 401.594 175.778 390.381L226.088 391.146L220.468 410.545L269.341 404.217C279.169 402.945 288.145 410.062 289.389 420.115C289.455 420.646 289.498 421.179 289.518 421.714L317.199 510.291Z" fill="#2F2E41"/>
<path d="M195.134 274.532C206.416 274.532 215.563 265.381 215.563 254.092C215.563 242.804 206.416 233.653 195.134 233.653C183.852 233.653 174.706 242.804 174.706 254.092C174.706 265.381 183.852 274.532 195.134 274.532Z" fill="#FFB6B6"/>
<path d="M183.158 281.911L201.889 284.115C202.679 284.208 203.42 284.546 204.009 285.08C204.599 285.614 205.007 286.32 205.176 287.097L208.155 300.735L226.724 322.615C226.724 322.615 233.392 335.124 230.892 349.301C228.391 363.478 227.293 374.012 227.293 374.012C227.293 374.012 177.481 392.699 175.814 390.197C174.147 387.695 173.606 376.331 173.606 376.331L166.938 302.109C166.938 302.109 174.44 289.6 178.607 289.6C181.297 289.509 180.952 283.453 183.158 281.911Z" fill="#F3F7F0"/>
<path d="M227.799 378.576C230.426 378.576 232.555 376.019 232.555 372.866C232.555 369.712 230.426 367.155 227.799 367.155C225.172 367.155 223.043 369.712 223.043 372.866C223.043 376.019 225.172 378.576 227.799 378.576Z" fill="#F3F7F0"/>
<path d="M301.369 526.703L315.846 519.444L318.574 525.812L336.881 529.515C337.785 529.698 338.607 530.165 339.227 530.848C339.847 531.532 340.233 532.395 340.327 533.313C340.422 534.231 340.221 535.156 339.753 535.951C339.286 536.747 338.576 537.372 337.728 537.736L320.04 545.322L314.293 540.33L315.801 547.14L309.132 550L301.369 526.703Z" fill="#2F2E41"/>
<path d="M315.54 483.588L329.887 476.076L332.727 482.396L351.096 485.775C352.003 485.942 352.833 486.395 353.465 487.067C354.097 487.739 354.498 488.596 354.608 489.513C354.719 490.429 354.534 491.357 354.081 492.16C353.627 492.964 352.929 493.602 352.087 493.98L334.536 501.876L328.701 496.986L330.329 503.769L323.711 506.746L315.54 483.588Z" fill="#2F2E41"/>
<path d="M183.463 247.681C178.065 247.69 172.798 246.027 168.383 242.921L168.236 242.818V242.638C168.242 237.415 170.318 232.407 174.009 228.714C177.701 225.02 182.706 222.942 187.926 222.937H196.217C201.438 222.942 206.443 225.02 210.134 228.714C213.826 232.407 215.902 237.415 215.908 242.638C215.903 243.833 215.431 244.98 214.593 245.832C213.756 246.685 212.619 247.177 211.424 247.203L183.928 247.677C183.773 247.68 183.617 247.681 183.463 247.681Z" fill="#2F2E41"/>
<path d="M217.29 238.854C219.934 237.327 220.375 233.141 218.277 229.504C216.178 225.867 212.334 224.157 209.69 225.684C207.046 227.211 206.605 231.397 208.703 235.034C210.802 238.671 214.646 240.381 217.29 238.854Z" fill="#2F2E41"/>
<path d="M175.944 234.797C178.912 231.827 179.568 227.669 177.41 225.51C175.251 223.35 171.095 224.006 168.127 226.976C165.159 229.945 164.503 234.104 166.662 236.263C168.82 238.423 172.976 237.766 175.944 234.797Z" fill="#2F2E41"/>
<path d="M356.741 421.679H336.351C335.891 421.678 335.436 421.777 335.018 421.97C334.601 422.163 334.231 422.445 333.933 422.797C333.181 422.658 332.407 422.701 331.675 422.92C330.942 423.139 330.272 423.529 329.719 424.057C329.166 424.586 328.746 425.238 328.494 425.96C328.242 426.683 328.165 427.454 328.269 428.212C328.372 428.97 328.654 429.693 329.091 430.321C329.529 430.948 330.108 431.464 330.783 431.824C331.457 432.184 332.208 432.379 332.972 432.393C333.737 432.407 334.494 432.239 335.181 431.903L336.872 437.401C337.073 438.053 337.476 438.623 338.025 439.028C338.573 439.433 339.236 439.652 339.917 439.652H353.175C353.856 439.652 354.519 439.433 355.067 439.028C355.615 438.623 356.019 438.053 356.22 437.401L359.786 425.804C359.933 425.327 359.966 424.823 359.882 424.331C359.798 423.839 359.6 423.374 359.304 422.973C359.008 422.571 358.622 422.245 358.176 422.021C357.731 421.796 357.24 421.679 356.741 421.679ZM333.073 431.011C332.157 431.011 331.278 430.647 330.63 429.999C329.983 429.35 329.619 428.471 329.619 427.555C329.619 426.638 329.983 425.759 330.63 425.111C331.278 424.462 332.157 424.098 333.073 424.098C333.136 424.098 333.195 424.113 333.257 424.117C333.12 424.673 333.137 425.256 333.306 425.804L334.765 430.549C334.251 430.848 333.668 431.007 333.073 431.011Z" fill="#3F3D56"/>
<path d="M265.689 406.673C264.297 406.802 262.893 406.623 261.577 406.151C260.261 405.678 259.064 404.923 258.072 403.937C257.079 402.952 256.314 401.761 255.832 400.448C255.349 399.134 255.16 397.731 255.277 396.337L187.265 359.871L202.141 350.342L266.307 387.573C268.635 387.926 270.753 389.121 272.258 390.932C273.764 392.742 274.554 395.043 274.478 397.397C274.401 399.752 273.465 401.996 271.845 403.706C270.225 405.415 268.035 406.471 265.689 406.673Z" fill="#FFB6B6"/>
<path d="M176.653 292.857C176.653 292.857 164.516 291.336 161.401 304.996C158.286 318.656 179.638 356.735 182.896 362.976C186.154 369.217 230.556 382.866 230.556 382.866L247.654 373.931L209.371 349.654L176.653 292.857Z" fill="#F3F7F0"/>
<path d="M262.199 236.417H266.344C268.36 236.417 270.293 237.218 271.718 238.644C273.143 240.07 273.944 242.004 273.944 244.021H254.599C254.599 242.004 255.399 240.07 256.825 238.644C258.25 237.218 260.183 236.417 262.199 236.417Z" fill="#CCCCCC"/>
<path d="M130.748 94.5428C153.43 94.5428 171.817 76.1459 171.817 53.4521C171.817 30.7583 153.43 12.3613 130.748 12.3613C108.066 12.3613 89.6794 30.7583 89.6794 53.4521C89.6794 76.1459 108.066 94.5428 130.748 94.5428Z" fill="#FF6584"/>
<path d="M256.491 51.3107C245.622 39.9029 232.999 29.496 218.056 23.9966C213.893 22.4583 209.577 21.3731 205.182 20.7599C205.147 20.755 205.114 20.7622 205.079 20.7593C205.007 20.7409 204.935 20.7267 204.861 20.7167C198.715 19.9332 192.476 20.3101 186.468 21.8277C183.53 22.5654 180.664 23.5644 177.904 24.8128C175.134 26.1648 172.45 27.6866 169.868 29.3695C164.402 32.6432 158.383 34.8896 152.11 35.9978C148.961 36.5651 145.771 36.8783 142.572 36.9344C139.796 36.9902 137.178 37.0866 134.548 38.09C131.739 39.147 129.215 40.8464 127.179 43.0525C125.143 45.2587 123.65 47.9105 122.82 50.7964C122.756 51.0534 122.775 51.3241 122.875 51.5694C122.974 51.8147 123.149 52.022 123.375 52.1612C124.086 52.671 124.78 53.2494 125.527 53.7036C126.192 54.0081 126.902 54.202 127.63 54.2774C128.818 54.5283 130.008 54.7719 131.199 55.0081C135.589 55.8782 139.996 56.6484 144.422 57.3188C153.377 58.6751 162.38 59.6306 171.432 60.1851C189.565 61.2841 207.761 60.7369 225.796 58.5503C235.932 57.322 245.998 55.5799 255.958 53.3307C256.159 53.2717 256.342 53.1616 256.489 53.011C256.636 52.8604 256.741 52.6745 256.794 52.4713C256.848 52.2681 256.848 52.0544 256.795 51.8511C256.742 51.6477 256.637 51.4616 256.491 51.3107Z" fill="#E6E6E6"/>
<path d="M132.697 78.7843C128.535 77.246 124.219 76.1608 119.824 75.5476C119.789 75.5427 119.755 75.5499 119.72 75.547C119.649 75.5286 119.576 75.5144 119.503 75.5044C113.356 74.7209 107.117 75.0978 101.109 76.6154C98.1715 77.3531 95.3054 78.3521 92.5453 79.6005C89.7754 80.9525 87.0916 82.4743 84.5091 84.1572C79.043 87.4309 73.0247 89.6773 66.7511 90.7855C63.6021 91.3528 60.4126 91.666 57.2134 91.7221C54.4376 91.7778 51.8198 91.8743 49.1898 92.8777C46.3804 93.9347 43.8568 95.6341 41.8204 97.8402C39.784 100.046 38.2912 102.698 37.4611 105.584C37.3971 105.841 37.4163 106.112 37.5161 106.357C37.6159 106.602 37.791 106.81 38.0162 106.949C38.7276 107.459 39.4211 108.037 40.1686 108.491C40.8336 108.796 41.5437 108.99 42.2711 109.065C43.4595 109.316 44.6494 109.559 45.8408 109.796C50.23 110.666 54.6374 111.436 59.063 112.106C68.0182 113.463 77.0217 114.418 86.0735 114.973C104.207 116.072 122.403 115.525 140.437 113.338C150.573 112.11 160.64 110.368 170.599 108.118C170.801 108.059 170.984 107.949 171.13 107.799C171.277 107.648 171.382 107.462 171.436 107.259C171.489 107.056 171.49 106.842 171.436 106.639C171.383 106.435 171.278 106.249 171.132 106.098C160.263 94.6906 147.641 84.2837 132.697 78.7843Z" fill="#E6E6E6"/>
<path d="M428.861 385.109L397.278 343.598L372.359 357.696L425.166 420.437L428.861 385.109Z" fill="#3F3D56"/>
<path d="M501.611 317.628C502.313 335.024 505.007 352.283 509.64 369.066C508.645 371.409 507.618 373.736 506.558 376.048C502.55 384.8 498.061 393.325 493.113 401.583C479.237 424.773 461.916 445.717 441.744 463.695C439.561 465.637 437.348 467.547 435.105 469.425C422.316 451.784 415.414 432.317 412.685 412.284C412.34 409.74 412.056 407.169 411.842 404.611V404.597C411.318 398.381 411.15 392.14 411.338 385.905C411.345 385.407 411.358 384.903 411.379 384.398C411.621 377.734 412.222 371.057 413.127 364.441V364.434C413.231 363.674 413.334 362.913 413.452 362.153C413.784 359.872 414.157 357.59 414.564 355.323C416.937 342.246 420.248 329.357 424.472 316.757V316.75C424.589 316.383 424.707 316.024 424.838 315.665C425.294 314.296 425.757 312.941 426.234 311.586C426.263 311.48 426.3 311.376 426.344 311.275C426.959 309.505 427.588 307.749 428.23 306.007C428.403 305.524 428.583 305.04 428.769 304.556C429.495 302.613 430.234 300.685 430.987 298.784C431.222 298.175 431.464 297.567 431.706 296.966C431.892 296.502 432.072 296.039 432.265 295.583V295.576C433.364 292.859 434.476 290.196 435.602 287.585C438.76 280.244 442.007 273.338 445.171 266.971L445.178 266.964C458.312 240.606 470.251 223.49 470.251 223.49L515.084 238.007C509.737 247.498 505.598 261.496 503.332 278.011C501.586 291.137 501.01 304.393 501.611 317.621L501.611 317.628Z" fill="#3F3D56"/>
<path d="M427.097 313.404C426.835 312.789 426.538 312.187 426.234 311.586C424.657 308.533 422.629 305.736 420.216 303.291C419.856 302.924 419.483 302.558 419.096 302.212C414.935 298.377 409.874 295.653 404.382 294.293C398.89 292.932 393.143 292.979 387.674 294.429L387.646 294.442L387.439 294.498L387.488 294.733C387.695 295.828 387.995 296.903 388.386 297.947C388.489 298.231 388.607 298.5 388.724 298.77C388.773 298.894 388.835 299.005 388.89 299.129C388.89 299.129 388.883 299.136 388.897 299.136C388.897 299.143 388.904 299.15 388.904 299.157C389.035 299.413 389.16 299.675 389.298 299.924C389.014 299.655 388.745 299.378 388.482 299.095C388.227 298.832 387.992 298.555 387.757 298.279C386.952 297.339 386.224 296.336 385.581 295.279L385.47 295.092L385.277 295.168C382.669 296.072 380.182 297.291 377.87 298.797L377.621 298.963C375.856 300.123 373.867 300.898 371.783 301.239C369.698 301.579 367.566 301.478 365.524 300.94C362.304 300.11 358.947 299.958 355.665 300.495C352.384 301.031 349.249 302.245 346.462 304.058C344.615 305.263 342.945 306.719 341.501 308.385C341.376 308.531 341.252 308.683 341.128 308.828C340.865 309.146 340.616 309.471 340.375 309.803C337.777 313.276 336.183 317.396 335.766 321.713L335.752 321.872L335.884 321.962C338.221 323.565 340.866 324.667 343.65 325.197C341.901 325.442 340.13 325.486 338.371 325.329H338.364C337.566 325.263 336.773 325.152 335.987 324.997L335.842 324.969H335.835L335.656 324.935L335.683 325.266C335.89 329.49 337.218 333.583 339.532 337.122L339.601 337.219C339.626 337.254 339.649 337.291 339.67 337.329C340.65 338.829 341.466 340.431 342.102 342.106C343.717 346.269 344.073 350.815 343.124 355.178C342.051 359.845 342.408 364.727 344.148 369.188C345.888 373.649 348.931 377.483 352.88 380.188C356.349 382.576 360.391 383.996 364.591 384.301C365.164 384.35 365.745 384.377 366.325 384.377C369.647 384.388 372.935 383.703 375.977 382.366L376.088 382.324L376.115 382.2C376.7 380.311 377.522 378.504 378.561 376.822C378.221 378.148 378.049 379.511 378.05 380.88V381.336L378.444 381.108C378.782 380.907 379.128 380.693 379.438 380.493C381.305 379.273 382.995 377.803 384.461 376.124C385.035 375.46 385.615 374.817 386.223 374.174L386.23 374.167C387.412 372.909 388.662 371.679 389.961 370.504C392.724 368.02 395.682 365.762 398.805 363.75C401.925 361.745 405.188 359.97 408.567 358.441H408.574C408.954 358.261 409.341 358.088 409.721 357.922C411.403 357.189 413.023 356.32 414.564 355.323C414.619 355.289 414.668 355.261 414.716 355.226C421.395 350.851 426.305 344.246 428.573 336.587C430.84 328.928 430.317 320.713 427.097 313.404L427.097 313.404Z" fill="#F3F7F0"/>
<path opacity="0.15" d="M344.263 364.993C344.074 365.833 343.931 366.683 343.835 367.539C342.549 363.472 342.362 359.137 343.295 354.974C343.438 354.337 343.546 353.693 343.631 353.045C344.907 356.899 345.126 361.026 344.263 364.993Z" fill="black"/>
<path opacity="0.15" d="M344.785 335.007C342.739 335.291 340.663 335.301 338.614 335.036C338.078 334.024 337.614 332.974 337.228 331.895C339.509 333.435 342.081 334.494 344.785 335.007Z" fill="black"/>
<path opacity="0.15" d="M338.45 325.106C337.695 327.039 337.193 329.062 336.957 331.124C336.327 329.16 335.954 327.123 335.85 325.063L335.833 324.731L336.159 324.794C336.917 324.936 337.682 325.041 338.45 325.106Z" fill="black"/>
<path opacity="0.15" d="M346.64 303.853C349.424 302.037 352.557 300.822 355.837 300.284C359.117 299.747 362.473 299.899 365.691 300.731C367.734 301.271 369.868 301.375 371.954 301.035C374.039 300.695 376.03 299.919 377.795 298.757L378.045 298.593C380.355 297.083 382.841 295.861 385.447 294.955L385.646 294.886L385.755 295.066C386.786 296.771 388.035 298.334 389.47 299.715C388.598 298.09 387.987 296.338 387.661 294.523L387.614 294.284L387.849 294.222C392.979 292.863 398.357 292.737 403.545 293.855C408.732 294.972 413.583 297.3 417.699 300.65C421.816 304 425.084 308.276 427.234 313.129C429.385 317.983 430.358 323.276 430.075 328.578C428.987 324.256 427.052 320.193 424.383 316.624C421.714 313.055 418.364 310.052 414.526 307.788C410.689 305.524 406.441 304.045 402.027 303.436C397.614 302.827 393.124 303.1 388.818 304.24L388.582 304.302L388.629 304.542C388.956 306.357 389.566 308.109 390.438 309.734C389.003 308.352 387.754 306.789 386.723 305.085L386.615 304.905L386.416 304.973C383.809 305.879 381.323 307.101 379.013 308.611L378.764 308.776C376.998 309.937 375.007 310.713 372.922 311.053C370.836 311.394 368.702 311.29 366.659 310.75C361.311 309.361 355.646 309.872 350.632 312.194C345.617 314.517 341.564 318.508 339.161 323.487C338.092 322.973 337.055 322.394 336.057 321.752L335.922 321.666L335.938 321.507C336.281 317.949 337.422 314.514 339.275 311.458C341.128 308.401 343.645 305.802 346.64 303.853Z" fill="black"/>
<path d="M603.492 127.223L602.836 126.787L602.359 127.409C598.67 132.057 595.734 137.257 593.661 142.818C593.947 136.411 595.066 130.07 596.991 123.953L597.198 123.31L596.604 122.971C588.874 118.591 580.637 115.174 572.077 112.796L571.144 112.547C564.584 110.746 558.477 107.581 553.221 103.26C547.965 98.9387 543.678 93.5574 540.641 87.4672C533.582 73.49 522.431 61.9991 508.675 54.5277C494.919 47.0564 479.213 43.9601 463.653 45.6519H463.646C463.48 45.6657 463.308 45.6865 463.142 45.7072C462.859 45.7348 462.582 45.7694 462.306 45.804C461.739 45.88 461.187 45.9561 460.634 46.039C460.164 46.1081 459.687 46.1842 459.217 46.2671C458.969 46.3017 458.727 46.3432 458.485 46.3916C458.243 46.433 457.995 46.4745 457.753 46.5229H457.746C453.107 47.4008 448.56 48.7084 444.163 50.4286H444.156V50.4355L443.043 50.871C441.896 51.3411 440.759 51.8388 439.63 52.3642C439.375 52.4817 439.126 52.6061 438.87 52.7236C438.801 52.7582 438.725 52.7927 438.656 52.8342C437.931 53.1799 437.212 53.5393 436.5 53.9195C436.397 53.9679 436.293 54.0232 436.19 54.0785L435.526 54.4311C434.068 55.2191 432.636 56.0556 431.229 56.9404C431.111 57.0095 431.001 57.0787 430.883 57.1547C430.759 57.2377 430.628 57.3206 430.503 57.4036C430.427 57.445 430.351 57.5003 430.275 57.5487C430.061 57.6801 429.854 57.8183 429.647 57.9635C429.232 58.2331 428.818 58.5096 428.41 58.793C427.989 59.0764 427.574 59.3737 427.159 59.6709L426.745 59.9682L426.821 60.4797C426.89 60.9014 426.952 61.3231 427.028 61.7379C427.097 62.1526 427.166 62.5605 427.242 62.9683C427.36 63.6527 427.491 64.3302 427.622 64.9869C427.712 65.4224 427.795 65.851 427.892 66.2726C427.982 66.7081 428.078 67.1437 428.182 67.5792C428.382 68.4778 428.597 69.3488 428.825 70.206C428.935 70.6346 429.053 71.0632 429.177 71.4849C429.246 71.7406 429.315 71.9964 429.391 72.2453C429.446 72.4181 429.502 72.5909 429.557 72.7637C429.571 72.819 429.585 72.8812 429.605 72.9435C429.621 73.002 429.639 73.0597 429.661 73.1163C429.737 73.3721 429.813 73.621 429.889 73.8629C429.93 73.9942 429.971 74.1255 430.02 74.25C430.117 74.5472 430.22 74.8514 430.324 75.1417C430.434 75.4735 430.552 75.8053 430.669 76.1302C430.697 76.2132 430.725 76.2892 430.752 76.3722C430.773 76.4344 430.794 76.4966 430.821 76.5588C430.849 76.628 430.877 76.704 430.904 76.7731C431.022 77.0842 431.139 77.4022 431.263 77.7133C431.305 77.8239 431.346 77.9414 431.395 78.052C432.515 80.8682 433.891 83.5755 435.506 86.1399C433.716 84.6053 431.993 82.9785 430.338 81.2595C427.781 78.6016 425.425 75.7573 423.29 72.7499C423.118 72.5149 422.945 72.2729 422.786 72.031C422.461 71.5678 422.143 71.1047 421.833 70.6346C421.501 70.1507 421.183 69.6461 420.872 69.1484C420.665 68.8165 420.458 68.4778 420.257 68.146C420.057 67.828 419.87 67.5169 419.691 67.199L419.152 66.2726H419.145V66.2796L418.385 67.0261C418.081 67.3234 417.777 67.6206 417.48 67.9178C408.194 77.2661 401.468 88.8475 397.948 101.548L397.844 101.929L397.741 102.323C397.54 103.028 397.34 103.712 397.126 104.41V104.417C396.919 105.109 396.697 105.8 396.463 106.477C396.248 107.12 396.027 107.756 395.792 108.392C395.716 108.606 395.633 108.821 395.544 109.035C395.399 109.45 395.24 109.858 395.081 110.272C395.005 110.459 394.929 110.653 394.853 110.839C394.666 111.295 394.48 111.752 394.293 112.201C394.265 112.27 394.231 112.346 394.196 112.415C394.141 112.554 394.079 112.692 394.024 112.823C393.879 113.155 393.727 113.494 393.581 113.826C393.478 114.04 393.381 114.261 393.284 114.475C393.243 114.572 393.195 114.669 393.153 114.766C392.897 115.319 392.635 115.865 392.359 116.404C392.048 117.04 391.73 117.676 391.391 118.298C391.094 118.879 390.783 119.446 390.459 120.012C389.899 121.015 389.312 122.01 388.704 122.978C388.469 123.351 388.234 123.725 387.992 124.098C387.937 124.188 387.881 124.278 387.826 124.361C387.626 124.686 387.419 124.997 387.204 125.315C387.059 125.529 386.914 125.743 386.769 125.951C386.527 126.324 386.272 126.683 386.009 127.036C385.94 127.146 385.864 127.25 385.788 127.354C385.401 127.893 385.014 128.418 384.62 128.944C384.607 128.951 384.607 128.958 384.6 128.965C384.586 128.965 384.586 128.971 384.579 128.978C384.406 129.206 384.234 129.435 384.054 129.656C383.819 129.981 383.563 130.299 383.308 130.61C382.893 131.135 382.458 131.667 382.016 132.186C382.002 132.2 381.995 132.214 381.981 132.22C379.692 134.912 377.212 137.434 374.561 139.769C374.512 139.811 374.478 139.852 374.43 139.887C374.056 140.212 373.683 140.537 373.296 140.854C373.138 140.986 372.979 141.117 372.82 141.249C372.557 141.47 372.288 141.691 372.025 141.891C371.994 141.923 371.959 141.951 371.922 141.974C371.687 142.168 371.459 142.348 371.224 142.527C370.94 142.756 370.657 142.97 370.367 143.184C368.999 144.221 367.594 145.2 366.152 146.122C365.938 146.267 365.71 146.412 365.489 146.551C365.358 146.634 365.227 146.717 365.102 146.786C364.577 147.111 364.052 147.429 363.527 147.733C363.002 148.044 362.463 148.341 361.931 148.631C360.791 149.253 359.665 149.903 358.566 150.581C358.014 150.926 357.461 151.272 356.915 151.625C354.746 153.035 352.657 154.544 350.649 156.152C348.641 157.762 346.715 159.471 344.88 161.275C344.652 161.496 344.424 161.724 344.196 161.959C343.74 162.408 343.297 162.865 342.876 163.321C342.199 164.019 341.549 164.738 340.907 165.464C337.519 169.31 334.519 173.483 331.953 177.921C330.664 180.137 329.492 182.419 328.443 184.757C327.648 186.506 326.923 188.297 326.267 190.108C325.831 191.318 325.424 192.539 325.044 193.772C324.857 194.387 324.677 195.009 324.505 195.631C323.917 197.74 323.427 199.869 323.026 202.005C322.701 203.719 322.439 205.436 322.239 207.155C322.135 208.019 322.052 208.883 321.976 209.74C321.798 211.847 321.707 213.956 321.703 216.067C321.691 222.4 322.46 228.71 323.993 234.854C324.332 236.209 324.707 237.557 325.12 238.898C325.327 239.569 325.548 240.232 325.769 240.896C326.329 242.555 326.948 244.198 327.628 245.825C328.035 246.799 328.464 247.767 328.913 248.728C331.767 254.837 335.409 260.545 339.746 265.706C340.458 266.556 341.192 267.393 341.95 268.215C341.957 268.215 341.95 268.222 341.95 268.222C343.83 270.274 345.821 272.221 347.913 274.057H347.919C348.755 274.796 349.605 275.513 350.469 276.206C350.476 276.2 350.476 276.206 350.476 276.206C351.346 276.912 352.224 277.589 353.122 278.246C353.571 278.571 354.027 278.895 354.49 279.22C355.395 279.863 356.319 280.483 357.261 281.08H357.267C358.207 281.688 359.161 282.269 360.128 282.822C362.069 283.935 364.059 284.979 366.104 285.926L366.45 286.085L366.802 285.926C370.081 284.449 373.461 283.209 376.917 282.214C377.677 281.992 378.444 281.792 379.204 281.598C381.124 281.121 383.059 280.72 385.007 280.396C383.109 281.348 381.276 282.427 379.521 283.624C378.16 284.543 376.82 285.546 375.473 286.652C375.024 287.018 374.575 287.398 374.126 287.785L373.006 288.753L374.409 289.216C374.92 289.382 375.431 289.548 375.943 289.7C376.64 289.921 377.331 290.122 378.008 290.309C379.487 290.723 380.975 291.09 382.472 291.408C382.838 291.484 383.197 291.56 383.563 291.636C384.275 291.774 384.993 291.912 385.712 292.037C385.742 292.044 385.772 292.049 385.802 292.05C386.548 292.175 387.301 292.292 388.047 292.396C389.436 292.597 390.825 292.756 392.213 292.873C392.365 292.894 392.518 292.901 392.676 292.908C393.015 292.935 393.347 292.963 393.685 292.984C394.431 293.032 395.184 293.067 395.937 293.094C395.993 293.094 396.041 293.101 396.096 293.101C396.476 293.115 396.856 293.129 397.236 293.136C397.236 293.136 397.236 293.143 397.243 293.136C397.623 293.143 398.003 293.15 398.383 293.15H400.484C400.877 293.15 401.271 293.157 401.672 293.157C402.225 293.157 402.784 293.163 403.337 293.17C403.482 293.17 403.634 293.177 403.786 293.177C404.671 293.191 405.555 293.212 406.439 293.233C406.494 293.233 406.55 293.239 406.605 293.239C407.489 293.267 408.374 293.295 409.258 293.336C409.452 293.343 409.645 293.35 409.845 293.364C410.695 293.398 411.545 293.44 412.395 293.488C412.637 293.502 412.885 293.523 413.134 293.537C413.777 293.571 414.426 293.613 415.069 293.661C415.449 293.682 415.822 293.71 416.202 293.744C417.736 293.862 419.262 293.993 420.796 294.145C421.308 294.187 421.819 294.242 422.33 294.297C423.698 294.442 425.071 294.601 426.448 294.774C427.063 294.843 427.678 294.926 428.293 295.009C428.362 295.016 428.431 295.023 428.5 295.037C429.26 295.14 430.013 295.244 430.773 295.355C431.27 295.424 431.768 295.5 432.265 295.576C432.777 295.652 433.288 295.728 433.799 295.818C434.075 295.859 434.352 295.908 434.635 295.956C435.298 296.06 435.969 296.17 436.639 296.295C436.699 296.301 436.759 296.31 436.818 296.323C438.242 296.571 439.672 296.834 441.095 297.118C441.931 297.277 442.76 297.442 443.589 297.615C444.239 297.747 444.888 297.885 445.538 298.023C445.648 298.044 445.759 298.071 445.869 298.099C445.894 298.106 445.919 298.111 445.945 298.113C446.926 298.327 447.914 298.548 448.895 298.784C452.302 299.572 455.703 300.447 459.1 301.41C459.881 301.625 460.662 301.853 461.442 302.081C461.774 302.178 462.099 302.274 462.423 302.371C463.1 302.572 463.771 302.772 464.448 302.986C465.042 303.166 465.643 303.353 466.237 303.546C466.61 303.664 466.983 303.781 467.356 303.906C467.937 304.086 468.517 304.272 469.091 304.473C469.581 304.625 470.065 304.784 470.548 304.957C471.239 305.185 471.937 305.42 472.628 305.669C472.828 305.738 473.036 305.807 473.236 305.883C474.079 306.173 474.922 306.47 475.765 306.782C476.587 307.079 477.409 307.383 478.224 307.687C478.791 307.901 479.357 308.109 479.917 308.33C480.546 308.572 481.175 308.814 481.796 309.063C482.695 309.415 483.6 309.775 484.498 310.141C485.327 310.473 486.149 310.812 486.978 311.164C487.13 311.227 487.289 311.289 487.441 311.358C488.16 311.655 488.878 311.966 489.59 312.277C490.053 312.471 490.509 312.671 490.965 312.872C492.954 313.743 494.942 314.644 496.927 315.575H496.934C498.178 316.162 499.442 316.722 500.713 317.254C501.01 317.379 501.308 317.503 501.612 317.621C502.116 317.835 502.627 318.036 503.138 318.243C503.47 318.374 503.802 318.506 504.14 318.63C504.631 318.824 505.128 319.01 505.626 319.19C506.151 319.384 506.669 319.577 507.201 319.757C507.388 319.826 507.574 319.888 507.768 319.957C508.382 320.165 508.997 320.372 509.619 320.573C509.681 320.593 509.744 320.614 509.813 320.635C510.462 320.842 511.111 321.05 511.768 321.243C511.82 321.262 511.873 321.279 511.927 321.292C512.632 321.506 513.35 321.713 514.062 321.914C515.112 322.204 516.169 322.481 517.226 322.736C517.419 322.785 517.613 322.833 517.806 322.875C518.373 323.013 518.933 323.144 519.499 323.269C520.1 323.407 520.708 323.531 521.309 323.656C521.917 323.78 522.525 323.905 523.126 324.015C523.451 324.077 523.776 324.14 524.094 324.195L524.943 324.34C525.531 324.444 526.118 324.534 526.712 324.63C526.729 324.63 526.745 324.632 526.76 324.637C527.431 324.741 528.094 324.838 528.764 324.921C529.407 325.011 530.049 325.087 530.692 325.163C530.823 325.176 530.961 325.19 531.099 325.204C531.631 325.266 532.163 325.329 532.695 325.377C532.847 325.391 532.999 325.405 533.151 325.418C533.676 325.467 534.202 325.515 534.727 325.55C534.832 325.564 534.938 325.57 535.044 325.57C535.514 325.612 535.984 325.647 536.454 325.667C536.786 325.695 537.11 325.709 537.442 325.729C537.615 325.736 537.78 325.743 537.953 325.75C538.409 325.778 538.865 325.792 539.328 325.806C539.888 325.826 540.447 325.84 541 325.854C541.67 325.868 542.347 325.875 543.018 325.875H543.031C543.688 325.875 544.351 325.868 545.007 325.854H545.256L545.982 325.833C546.355 325.826 546.728 325.812 547.094 325.799C547.799 325.771 548.496 325.736 549.194 325.695C549.471 325.681 549.754 325.66 550.03 325.647C550.155 325.64 550.286 325.626 550.41 325.619C550.846 325.591 551.274 325.564 551.709 325.529C552.158 325.494 552.614 325.453 553.063 325.405C553.644 325.349 554.224 325.287 554.804 325.225C555.26 325.176 555.716 325.121 556.166 325.066C556.226 325.061 556.286 325.051 556.345 325.038C556.78 324.99 557.216 324.935 557.644 324.872C558.155 324.803 558.66 324.727 559.164 324.651C559.219 324.644 559.268 324.637 559.323 324.63C560.194 324.492 561.071 324.354 561.948 324.195C562.867 324.029 563.786 323.849 564.698 323.663C565.037 323.594 565.368 323.517 565.707 323.448C565.894 323.407 566.087 323.372 566.267 323.331C566.55 323.269 566.826 323.206 567.103 323.137C567.151 323.13 567.206 323.117 567.255 323.11C567.642 323.027 568.022 322.93 568.408 322.833C569.182 322.646 569.942 322.453 570.702 322.246C571.041 322.163 571.379 322.073 571.704 321.983C571.801 321.955 571.897 321.928 571.987 321.9C573.39 321.506 574.781 321.089 576.16 320.649C576.768 320.455 577.369 320.255 577.971 320.04C579.263 319.598 580.543 319.132 581.812 318.644C582.151 318.52 582.489 318.381 582.828 318.25C583.325 318.049 583.823 317.849 584.313 317.649C584.755 317.462 585.197 317.275 585.647 317.082C585.868 316.992 586.089 316.895 586.31 316.798C586.973 316.508 587.636 316.211 588.293 315.913C588.735 315.706 589.17 315.506 589.605 315.298C590.296 314.966 590.98 314.628 591.664 314.289C591.837 314.199 592.003 314.109 592.169 314.026C592.604 313.805 593.039 313.577 593.481 313.356C594.179 312.982 594.877 312.609 595.568 312.222C595.803 312.098 596.031 311.966 596.266 311.835C597.026 311.406 597.779 310.971 598.525 310.528C600.176 309.54 601.804 308.508 603.41 307.431C603.81 307.169 604.211 306.892 604.605 306.623C605.351 306.111 606.084 305.586 606.816 305.06C606.892 305.005 606.961 304.95 607.037 304.901C607.403 304.632 607.769 304.362 608.135 304.086C608.896 303.512 609.649 302.931 610.402 302.337C610.415 302.33 610.436 302.309 610.457 302.295C610.796 302.026 611.134 301.756 611.466 301.486C612.495 300.65 613.511 299.8 614.506 298.922C614.996 298.5 615.48 298.065 615.957 297.629C616.316 297.304 616.675 296.979 617.028 296.648C617.739 295.977 618.437 295.313 619.128 294.636C619.473 294.304 619.812 293.958 620.157 293.613C620.496 293.267 620.841 292.922 621.18 292.569C621.297 292.451 621.415 292.327 621.532 292.203C621.878 291.836 622.223 291.463 622.569 291.097C622.866 290.779 623.156 290.447 623.453 290.115C623.95 289.562 624.455 289.009 624.945 288.449C624.971 288.417 624.999 288.387 625.028 288.359C625.056 288.325 625.083 288.297 625.104 288.269H625.097C635.14 276.65 642.602 263.029 646.989 248.308C651.376 233.588 652.588 218.102 650.546 202.878C648.504 187.653 643.253 173.036 635.141 159.993C627.03 146.951 616.242 135.781 603.493 127.223L603.492 127.223Z" fill="#F3F7F0"/>
<g opacity="0.15">
<path opacity="0.15" d="M463.648 45.6465C465.025 50.5963 467.097 55.3256 469.802 59.6931C465.274 55.801 461.228 51.3801 457.75 46.5249C459.704 46.1552 461.669 45.8624 463.648 45.6465Z" fill="black"/>
<path opacity="0.15" d="M396.231 122.196C391.117 124.989 386.336 128.351 381.979 132.22C389.336 123.515 394.713 113.314 397.737 102.323C397.774 102.191 397.811 102.058 397.846 101.926L397.949 101.551C401.583 88.4335 408.635 76.5166 418.382 67.0198L419.148 66.2727L419.689 67.1959C422.677 72.2794 426.253 76.9933 430.342 81.2403C424.076 98.9327 411.881 113.658 396.231 122.196Z" fill="black"/>
<path opacity="0.15" d="M432.247 75.11L432.144 75.4841C432.108 75.6164 432.071 75.7493 432.035 75.8813C431.833 76.6088 431.618 77.3307 431.397 78.0495C429.211 72.3854 427.677 66.491 426.822 60.4799L426.742 59.9699L427.161 59.6701C432.418 55.8903 438.128 52.7845 444.158 50.4254C438.744 57.8749 434.71 66.2355 432.247 75.11Z" fill="black"/>
<path opacity="0.15" d="M361.933 148.638C366.459 146.159 370.695 143.185 374.562 139.768C366.836 148.768 361.299 159.435 358.383 170.934C355.467 182.433 355.252 194.451 357.754 206.047C360.257 217.643 365.409 228.502 372.808 237.772C380.206 247.043 389.65 254.473 400.398 259.481L400.748 259.643L401.096 259.485C406.902 256.861 413.023 255.001 419.307 253.952C415.385 255.951 411.729 258.435 408.425 261.345L407.307 262.312L408.709 262.775C409.92 263.175 411.13 263.544 412.307 263.871C419.222 265.797 426.37 266.754 433.548 266.714C466.16 266.505 499.025 274.049 531.229 289.135C536.752 291.718 542.481 293.837 548.355 295.468C573.957 302.6 601.288 300.034 625.117 288.263C611.682 303.808 594.116 315.222 574.457 321.178C554.799 327.133 533.855 327.387 514.058 321.909C508.183 320.278 502.455 318.16 496.932 315.576C464.727 300.49 431.862 292.946 399.25 293.155C392.073 293.196 384.924 292.239 378.01 290.312C376.833 289.985 375.622 289.617 374.412 289.216L373.009 288.753L374.127 287.786C377.432 284.876 381.088 282.393 385.01 280.394C378.726 281.443 372.605 283.302 366.799 285.927L366.45 286.084L366.101 285.923C353.193 279.912 342.209 270.43 334.373 258.536C326.538 246.642 322.16 232.804 321.728 218.565C321.296 204.327 324.826 190.248 331.926 177.901C339.025 165.553 349.414 155.422 361.933 148.638L361.933 148.638Z" fill="black"/>
</g>
</g>
<defs>
<clipPath id="clip0_3_2657">
<rect width="652" height="550" fill="white"/>
</clipPath>
</defs>
</svg>
