<svg width="24" height="24" viewBox="0 0 24 24" fill="none" xmlns="http://www.w3.org/2000/svg">
<path d="M5 21L19 21C19.5523 21 20 20.5523 20 20L20 10C20 9.44772 19.5523 9 19 9L5 9C4.44772 9 4 9.44772 4 10L4 20C4 20.5523 4.44772 21 5 21Z" stroke="#19323C" stroke-width="1.5" stroke-linecap="round" stroke-linejoin="round"/>
<path d="M14.7692 9V8.25V9ZM9.23077 9L9.23077 9.75H9.23077L9.23077 9ZM9 8.76923H8.25H9ZM9 6H9.75H9ZM15 6H14.25V6L15 6ZM15 8.76923H15.75H15ZM12 3V3.75V3ZM14.7692 8.25L9.23077 8.25L9.23077 9.75L14.7692 9.75V8.25ZM9.75 8.76923L9.75 6H8.25L8.25 8.76923H9.75ZM14.25 6L14.25 8.76923H15.75L15.75 6L14.25 6ZM12 3.75C13.2426 3.75 14.25 4.75736 14.25 6H15.75C15.75 3.92893 14.0711 2.25 12 2.25V3.75ZM9.75 6C9.75 4.75736 10.7574 3.75 12 3.75V2.25C9.92893 2.25 8.25 3.92893 8.25 6H9.75ZM9.23077 8.25C9.51754 8.25 9.75 8.48247 9.75 8.76923H8.25C8.25 9.31089 8.6891 9.75 9.23077 9.75L9.23077 8.25ZM14.7692 9.75C15.3109 9.75 15.75 9.3109 15.75 8.76923H14.25C14.25 8.48246 14.4825 8.25 14.7692 8.25V9.75Z" fill="#19323C"/>
</svg>
