<svg width="72" height="73" viewBox="0 0 72 73" fill="none" xmlns="http://www.w3.org/2000/svg">
<g clip-path="url(#clip0_2_2541)">
<path d="M20.4761 2.81481C20.4761 1.98261 21.0958 1.28061 21.9216 1.17741L31.8227 -0.06029C32.8076 -0.18339 33.6775 0.584611 33.6775 1.57721V34.1427C33.6775 35.1353 32.8076 35.9032 31.8227 35.7801L21.9216 34.5425C21.0958 34.4392 20.4761 33.7373 20.4761 32.905V2.81481Z" fill="#F3F7F0"/>
<path d="M0.673798 6.9403C0.673798 6.1081 1.2935 5.4061 2.1193 5.3028L12.0204 4.0652C13.0054 3.9421 13.8753 4.7101 13.8753 5.7027V31.6674C13.8753 32.66 13.0054 33.4279 12.0204 33.3048L2.1193 32.0672C1.2935 31.964 0.673798 31.262 0.673798 30.4297V6.9403Z" fill="#F3F7F0"/>
<path d="M52.23 2.6958C52.964 2.8794 53.48 3.5395 53.48 4.2967V18.0534C53.48 18.8856 52.86 19.5876 52.034 19.6908L42.1331 20.9284C41.1482 21.0516 40.2783 20.2836 40.2783 19.291V1.8214C40.2783 0.747801 41.2872 -0.0398974 42.3287 0.220503L52.23 2.6958Z" fill="#F3F7F0"/>
<path d="M71.632 8.42211C71.632 7.66491 71.116 7.00491 70.382 6.82121L60.481 4.34601C59.439 4.08561 58.43 4.8733 58.43 5.9469V18.4659C58.43 19.4585 59.3 20.2265 60.285 20.1033L70.186 18.8657C71.012 18.7625 71.632 18.0605 71.632 17.2283V8.42211Z" fill="#F3F7F0"/>
<path d="M71.632 25.2858L39.4532 26.1109C39.9188 32.1634 44.9658 36.8371 51.036 36.8371H58.43V43.8599L0.673798 38.4872V72.89L71.632 67.939V25.2858Z" fill="#F3F7F0"/>
</g>
<defs>
<clipPath id="clip0_2_2541">
<rect width="71" height="73" fill="white" transform="translate(0.5)"/>
</clipPath>
</defs>
</svg>
