<svg width="238" height="73" viewBox="0 0 238 73" fill="none" xmlns="http://www.w3.org/2000/svg">
<g clip-path="url(#clip0_2_82)">
<path d="M141.973 65.806C141.973 66.607 142.642 67.245 143.443 67.207L155.313 66.64C156.061 66.604 156.649 65.987 156.649 65.238V27.7278C156.649 26.9308 155.986 26.2939 155.19 26.3258L143.32 26.8006C142.567 26.8307 141.973 27.4495 141.973 28.2026V65.806Z" fill="#F3F7F0"/>
<path d="M143.818 19.3066C145.271 20.7602 147.088 21.4871 149.269 21.4871C151.561 21.4871 153.406 20.7602 154.804 19.3066C156.258 17.797 156.985 15.924 156.985 13.6876C156.985 11.5071 156.258 9.6621 154.804 8.1525C153.406 6.643 151.561 5.8882 149.269 5.8882C147.088 5.8882 145.271 6.643 143.818 8.1525C142.364 9.6621 141.637 11.5071 141.637 13.6876C141.637 15.924 142.364 17.797 143.818 19.3066Z" fill="#F3F7F0"/>
<path fill-rule="evenodd" clip-rule="evenodd" d="M106.658 43.2081V63.596C106.658 64.272 106.177 64.851 105.513 64.976L93.307 67.257C92.444 67.419 91.646 66.756 91.646 65.878V9.2202C91.646 8.4453 92.275 7.8171 93.05 7.8171H116.974C120.999 7.8171 124.522 8.5719 127.541 10.0814C130.616 11.591 133.02 13.6597 134.753 16.2874C136.486 18.9152 137.353 21.9903 137.353 25.5126C137.353 29.0349 136.458 32.1379 134.669 34.8216C132.936 37.4494 130.504 39.5181 127.373 41.0276C126.019 41.6565 124.565 42.1493 123.011 42.5061L138.932 64.176C139.707 65.231 138.743 66.679 137.471 66.371L124.311 63.18C124.012 63.107 123.746 62.939 123.552 62.7L107.732 43.2081H106.658ZM106.658 32.4734H114.877C117.337 32.4734 119.21 31.8863 120.496 30.7122C121.838 29.4822 122.509 27.8329 122.509 25.7642C122.509 23.7514 121.838 22.13 120.496 20.9C119.21 19.6141 117.337 18.9711 114.877 18.9711H106.658V32.4734Z" fill="#F3F7F0"/>
<path d="M176.558 68.451C174.042 68.451 171.554 68.116 169.094 67.445C166.69 66.774 164.425 65.88 162.301 64.761C160.676 63.839 159.241 62.813 157.995 61.684C157.433 61.175 157.44 60.305 157.971 59.762L163.972 53.6348C164.526 53.0691 165.434 53.0798 166.038 53.5918C167.139 54.5247 168.381 55.2847 169.765 55.8717C171.666 56.6545 173.678 57.0458 175.803 57.0458C177.033 57.0458 177.956 56.8781 178.571 56.5427C179.242 56.2072 179.577 55.732 179.577 55.1169C179.577 54.2224 179.102 53.5515 178.151 53.1042C177.257 52.601 176.055 52.1817 174.545 51.8462C173.091 51.4548 171.554 51.0076 169.933 50.5044C168.311 49.9453 166.746 49.2184 165.236 48.3239C163.726 47.4293 162.496 46.1713 161.546 44.55C160.651 42.9286 160.204 40.8599 160.204 38.3439C160.204 35.7162 160.903 33.4239 162.301 31.467C163.754 29.4543 165.767 27.8888 168.339 26.7706C170.911 25.5965 173.93 25.0094 177.396 25.0094C180.919 25.0094 184.273 25.6244 187.46 26.8544C190.171 27.853 192.893 29.7875 194.851 31.8226C195.398 32.392 195.291 33.2983 194.664 33.78L187.723 39.1195C187.139 39.5684 186.318 39.4774 185.771 38.9848C184.818 38.1269 183.917 37.6802 182.68 37.2537C181.059 36.6387 179.577 36.3312 178.235 36.3312C176.949 36.3312 176.027 36.5269 175.468 36.9182C174.909 37.2537 174.629 37.7289 174.629 38.3439C174.629 39.0708 175.076 39.6578 175.971 40.1051C176.921 40.5524 178.123 40.9717 179.577 41.3631C181.087 41.6985 182.624 42.1458 184.19 42.7049C185.811 43.264 187.348 44.0468 188.802 45.0531C190.312 46.0036 191.514 47.2895 192.408 48.9109C193.359 50.5323 193.834 52.629 193.834 55.2008C193.834 59.282 192.269 62.525 189.138 64.929C186.007 67.277 181.813 68.451 176.558 68.451Z" fill="#F3F7F0"/>
<path fill-rule="evenodd" clip-rule="evenodd" d="M204.795 65.516C208.318 67.305 212.371 68.2 216.956 68.2C220.59 68.2 223.833 67.613 226.684 66.439C229.172 65.434 231.332 64.02 233.164 62.197C233.689 61.676 233.658 60.832 233.135 60.309L227.49 54.6649C226.917 54.0921 225.985 54.1293 225.385 54.6735C224.425 55.5442 223.376 56.2231 222.239 56.7104C220.73 57.3813 218.969 57.7168 216.956 57.7168C214.831 57.7168 213.042 57.2974 211.589 56.4588C210.135 55.6201 209.017 54.3901 208.234 52.7687C208.042 52.3581 207.874 51.9274 207.729 51.4765L235.406 51.3481C236.048 51.3451 236.611 50.9085 236.737 50.2796C236.875 49.593 236.962 48.9691 237 48.4077C237.111 47.5132 237.167 46.6466 237.167 45.8079C237.167 41.8383 236.245 38.316 234.4 35.2409C232.611 32.11 230.095 29.6779 226.852 27.9447C223.665 26.1556 220.003 25.261 215.866 25.261C211.616 25.261 207.787 26.2115 204.376 28.1124C201.022 29.9574 198.366 32.5014 196.409 35.7441C194.452 38.931 193.474 42.5931 193.474 46.7304C193.474 50.9237 194.48 54.6417 196.493 57.8845C198.506 61.127 201.273 63.671 204.795 65.516ZM207.698 42.057C207.829 41.6395 207.979 41.2404 208.15 40.8599C208.877 39.2385 209.911 37.9805 211.253 37.086C212.595 36.1914 214.188 35.7441 216.033 35.7441C217.822 35.7441 219.304 36.1355 220.478 36.9182C221.652 37.701 222.547 38.8471 223.162 40.3567C223.364 40.8341 223.536 41.3567 223.677 41.9246L207.698 42.057Z" fill="#F3F7F0"/>
<path d="M219.862 19.4365V8.6123H222.614V19.4365H219.862ZM216.525 10.9033V8.5355H225.95V10.9033H216.525ZM226.433 19.4365V8.5355H228.417L232.599 14.8547H231.661L235.828 8.5355H237.811V19.4365H235.09V13.0865L235.52 13.2095L233.014 16.9765H231.23L228.74 13.2095L229.17 13.0865V19.4365H226.433Z" fill="#F3F7F0"/>
<path d="M19.9761 2.8148C19.9761 1.9826 20.5958 1.2806 21.4216 1.1774L31.3227 -0.0602976C32.3076 -0.183398 33.1775 0.584603 33.1775 1.5772V34.1427C33.1775 35.1353 32.3076 35.9032 31.3227 35.7801L21.4216 34.5425C20.5958 34.4392 19.9761 33.7373 19.9761 32.905V2.8148Z" fill="#F3F7F0"/>
<path d="M0.173828 6.9403C0.173828 6.1081 0.793528 5.4061 1.61933 5.3028L11.5204 4.0652C12.5054 3.9421 13.3753 4.7101 13.3753 5.7027V31.6674C13.3753 32.66 12.5054 33.4279 11.5204 33.3048L1.61933 32.0672C0.793528 31.964 0.173828 31.262 0.173828 30.4297V6.9403Z" fill="#F3F7F0"/>
<path d="M51.73 2.6958C52.464 2.8794 52.98 3.5395 52.98 4.2967V18.0534C52.98 18.8856 52.36 19.5876 51.534 19.6908L41.6331 20.9284C40.6482 21.0516 39.7783 20.2836 39.7783 19.291V1.8214C39.7783 0.747801 40.7872 -0.0398974 41.8287 0.220503L51.73 2.6958Z" fill="#F3F7F0"/>
<path d="M71.132 8.4221C71.132 7.6649 70.616 7.0049 69.882 6.8212L59.981 4.346C58.939 4.0856 57.93 4.8733 57.93 5.9469V18.4659C57.93 19.4585 58.8 20.2265 59.785 20.1033L69.686 18.8657C70.512 18.7625 71.132 18.0605 71.132 17.2283V8.4221Z" fill="#F3F7F0"/>
<path d="M71.132 25.2858L38.9532 26.1109C39.4188 32.1634 44.4658 36.8371 50.536 36.8371H57.93V43.8599L0.173828 38.4872V72.89L71.132 67.939V25.2858Z" fill="#F3F7F0"/>
</g>
<defs>
<clipPath id="clip0_2_82">
<rect width="238" height="73" fill="white"/>
</clipPath>
</defs>
</svg>
