<svg width="238" height="73" viewBox="0 0 238 73" fill="none" xmlns="http://www.w3.org/2000/svg">
<g clip-path="url(#clip0_2_81)">
<path d="M141.973 65.842C141.973 66.643 142.642 67.282 143.443 67.244L155.313 66.676C156.061 66.641 156.649 66.024 156.649 65.275V27.7644C156.649 26.9675 155.986 26.3305 155.19 26.3624L143.32 26.8372C142.567 26.8673 141.973 27.4861 141.973 28.2392V65.842Z" fill="#19323C"/>
<path d="M143.818 19.3432C145.271 20.7969 147.088 21.5237 149.269 21.5237C151.561 21.5237 153.406 20.7969 154.804 19.3432C156.258 17.8336 156.985 15.9607 156.985 13.7242C156.985 11.5438 156.258 9.69871 154.804 8.18921C153.406 6.67961 151.561 5.9248 149.269 5.9248C147.088 5.9248 145.271 6.67961 143.818 8.18921C142.364 9.69871 141.637 11.5438 141.637 13.7242C141.637 15.9607 142.364 17.8336 143.818 19.3432Z" fill="#19323C"/>
<path fill-rule="evenodd" clip-rule="evenodd" d="M106.658 43.2447V63.633C106.658 64.308 106.177 64.888 105.513 65.012L93.307 67.294C92.444 67.455 91.646 66.793 91.646 65.915V9.2568C91.646 8.4819 92.275 7.8537 93.05 7.8537H116.974C120.999 7.8537 124.522 8.6085 127.541 10.1181C130.616 11.6276 133.02 13.6963 134.753 16.3241C136.486 18.9518 137.353 22.0269 137.353 25.5492C137.353 29.0715 136.458 32.1746 134.669 34.8582C132.936 37.486 130.504 39.5547 127.373 41.0642C126.019 41.6931 124.565 42.1859 123.011 42.5427L138.932 64.213C139.707 65.268 138.743 66.716 137.471 66.407L124.311 63.216C124.012 63.144 123.746 62.975 123.552 62.737L107.732 43.2447H106.658ZM106.658 32.51H114.877C117.337 32.51 119.21 31.923 120.496 30.7488C121.838 29.5188 122.509 27.8695 122.509 25.8008C122.509 23.7881 121.838 22.1667 120.496 20.9366C119.21 19.6507 117.337 19.0077 114.877 19.0077H106.658V32.51Z" fill="#19323C"/>
<path d="M176.558 68.488C174.042 68.488 171.554 68.153 169.094 67.482C166.69 66.811 164.425 65.916 162.301 64.798C160.676 63.876 159.241 62.85 157.995 61.721C157.433 61.211 157.44 60.341 157.971 59.799L163.972 53.6715C164.526 53.1057 165.434 53.1164 166.038 53.6285C167.139 54.5614 168.381 55.3213 169.765 55.9084C171.666 56.6911 173.678 57.0825 175.803 57.0825C177.033 57.0825 177.956 56.9147 178.571 56.5793C179.242 56.2438 179.577 55.7686 179.577 55.1536C179.577 54.259 179.102 53.5881 178.151 53.1408C177.257 52.6376 176.055 52.2183 174.545 51.8828C173.091 51.4915 171.554 51.0442 169.933 50.541C168.311 49.9819 166.746 49.2551 165.236 48.3605C163.726 47.4659 162.496 46.208 161.546 44.5866C160.651 42.9652 160.204 40.8965 160.204 38.3806C160.204 35.7528 160.903 33.4605 162.301 31.5036C163.754 29.4909 165.767 27.9254 168.339 26.8072C170.911 25.6331 173.93 25.046 177.396 25.046C180.919 25.046 184.273 25.661 187.46 26.8911C190.171 27.8896 192.893 29.8241 194.851 31.8592C195.398 32.4287 195.291 33.3349 194.664 33.8166L187.723 39.1561C187.139 39.605 186.318 39.514 185.771 39.0214C184.818 38.1635 183.917 37.7168 182.68 37.2903C181.059 36.6753 179.577 36.3678 178.235 36.3678C176.949 36.3678 176.027 36.5635 175.468 36.9549C174.909 37.2903 174.629 37.7656 174.629 38.3806C174.629 39.1074 175.076 39.6945 175.971 40.1417C176.921 40.589 178.123 41.0083 179.577 41.3997C181.087 41.7352 182.624 42.1824 184.19 42.7415C185.811 43.3006 187.348 44.0834 188.802 45.0898C190.312 46.0402 191.514 47.3262 192.408 48.9476C193.359 50.5689 193.834 52.6656 193.834 55.2374C193.834 59.319 192.269 62.562 189.138 64.966C186.007 67.314 181.813 68.488 176.558 68.488Z" fill="#19323C"/>
<path fill-rule="evenodd" clip-rule="evenodd" d="M204.795 65.553C208.318 67.342 212.371 68.237 216.956 68.237C220.59 68.237 223.833 67.649 226.684 66.475C229.172 65.471 231.332 64.057 233.164 62.234C233.689 61.712 233.658 60.869 233.135 60.346L227.49 54.7015C226.917 54.1287 225.985 54.1659 225.385 54.7101C224.425 55.5808 223.376 56.2597 222.239 56.747C220.73 57.4179 218.969 57.7534 216.956 57.7534C214.831 57.7534 213.042 57.3341 211.589 56.4954C210.135 55.6568 209.017 54.4267 208.234 52.8053C208.042 52.3947 207.874 51.964 207.729 51.5131L235.406 51.3847C236.048 51.3817 236.611 50.9451 236.737 50.3162C236.875 49.6296 236.962 49.0057 237 48.4444C237.111 47.5498 237.167 46.6832 237.167 45.8446C237.167 41.8749 236.245 38.3526 234.4 35.2776C232.611 32.1466 230.095 29.7145 226.852 27.9813C223.665 26.1922 220.003 25.2976 215.866 25.2976C211.616 25.2976 207.787 26.2481 204.376 28.149C201.022 29.9941 198.366 32.538 196.409 35.7808C194.452 38.9676 193.474 42.6297 193.474 46.7671C193.474 50.9603 194.48 54.6783 196.493 57.9211C198.506 61.164 201.273 63.708 204.795 65.553ZM207.698 42.0936C207.829 41.6761 207.979 41.2771 208.15 40.8965C208.877 39.2751 209.911 38.0172 211.253 37.1226C212.595 36.228 214.188 35.7808 216.033 35.7808C217.822 35.7808 219.304 36.1721 220.478 36.9549C221.652 37.7376 222.547 38.8838 223.162 40.3933C223.364 40.8707 223.536 41.3933 223.677 41.9612L207.698 42.0936Z" fill="#19323C"/>
<path d="M219.862 19.4731V8.64899H222.614V19.4731H219.862ZM216.525 10.9399V8.5721H225.95V10.9399H216.525ZM226.433 19.4731V8.5721H228.417L232.599 14.8913H231.661L235.828 8.5721H237.811V19.4731H235.09V13.1232L235.52 13.2462L233.014 17.0131H231.23L228.74 13.2462L229.17 13.1232V19.4731H226.433Z" fill="#19323C"/>
<path d="M19.9761 2.85139C19.9761 2.01919 20.5958 1.3172 21.4216 1.214L31.3227 -0.0236064C32.3076 -0.146706 33.1775 0.621195 33.1775 1.6138V34.1793C33.1775 35.1719 32.3076 35.9398 31.3227 35.8167L21.4216 34.5791C20.5958 34.4759 19.9761 33.7739 19.9761 32.9417V2.85139Z" fill="#19323C"/>
<path d="M0.173798 6.9769C0.173798 6.1447 0.793497 5.44271 1.6193 5.33951L11.5204 4.1018C12.5054 3.9787 13.3753 4.7467 13.3753 5.7393V31.704C13.3753 32.6966 12.5054 33.4646 11.5204 33.3414L1.6193 32.1038C0.793497 32.0006 0.173798 31.2986 0.173798 30.4664V6.9769Z" fill="#19323C"/>
<path d="M51.73 2.7324C52.464 2.916 52.98 3.57611 52.98 4.33331V18.09C52.98 18.9222 52.36 19.6242 51.534 19.7274L41.6331 20.9651C40.6482 21.0882 39.7783 20.3202 39.7783 19.3276V1.85801C39.7783 0.784506 40.7872 -0.0032962 41.8287 0.257104L51.73 2.7324Z" fill="#19323C"/>
<path d="M71.132 8.4588C71.132 7.7016 70.616 7.0415 69.882 6.8579L59.981 4.3826C58.939 4.1222 57.93 4.9099 57.93 5.9835V18.5025C57.93 19.4951 58.8 20.2631 59.785 20.14L69.686 18.9023C70.512 18.7991 71.132 18.0971 71.132 17.2649V8.4588Z" fill="#19323C"/>
<path d="M71.132 25.3224L38.9532 26.1475C39.4188 32.2 44.4658 36.8737 50.536 36.8737H57.93V43.8966L0.173798 38.5239V72.927L71.132 67.976V25.3224Z" fill="#19323C"/>
</g>
<defs>
<clipPath id="clip0_2_81">
<rect width="238" height="73" fill="white"/>
</clipPath>
</defs>
</svg>
