<svg width="72" height="73" viewBox="0 0 72 73" fill="none" xmlns="http://www.w3.org/2000/svg">
<g clip-path="url(#clip0_2_2528)">
<path d="M20.4761 2.8514C20.4761 2.0192 21.0958 1.3172 21.9216 1.214L31.8227 -0.0236026C32.8076 -0.146703 33.6775 0.621199 33.6775 1.6138V34.1793C33.6775 35.1719 32.8076 35.9398 31.8227 35.8167L21.9216 34.5791C21.0958 34.4759 20.4761 33.7739 20.4761 32.9417V2.8514Z" fill="#19323C"/>
<path d="M0.673798 6.9769C0.673798 6.1447 1.2935 5.4427 2.1193 5.3395L12.0204 4.1018C13.0054 3.9787 13.8753 4.7467 13.8753 5.7393V31.704C13.8753 32.6966 13.0054 33.4646 12.0204 33.3414L2.1193 32.1038C1.2935 32.0006 0.673798 31.2986 0.673798 30.4664V6.9769Z" fill="#19323C"/>
<path d="M52.23 2.7324C52.964 2.916 53.48 3.5761 53.48 4.3333V18.09C53.48 18.9222 52.86 19.6242 52.034 19.7274L42.1331 20.9651C41.1482 21.0882 40.2783 20.3202 40.2783 19.3276V1.858C40.2783 0.784503 41.2872 -0.00330002 42.3287 0.2571L52.23 2.7324Z" fill="#19323C"/>
<path d="M71.632 8.4588C71.632 7.7016 71.116 7.0415 70.382 6.8579L60.481 4.3826C59.439 4.1222 58.43 4.9099 58.43 5.9835V18.5025C58.43 19.4951 59.3 20.2631 60.285 20.14L70.186 18.9023C71.012 18.7991 71.632 18.0971 71.632 17.2649V8.4588Z" fill="#19323C"/>
<path d="M71.632 25.3224L39.4532 26.1475C39.9188 32.2 44.9658 36.8737 51.036 36.8737H58.43V43.8966L0.673798 38.5239V72.927L71.632 67.976V25.3224Z" fill="#19323C"/>
</g>
<defs>
<clipPath id="clip0_2_2528">
<rect width="71" height="73" fill="white" transform="translate(0.5)"/>
</clipPath>
</defs>
</svg>
